<?xml version="1.0" encoding="utf-8"?>
<!-- Generator: Adobe Illustrator 25.2.0, SVG Export Plug-In . SVG Version: 6.00 Build 0)  -->
<svg version="1.1" id="Layer_1" xmlns="http://www.w3.org/2000/svg" xmlns:xlink="http://www.w3.org/1999/xlink" x="0px" y="0px"
	 viewBox="0 0 330 337.1" style="enable-background:new 0 0 330 337.1;" xml:space="preserve">

<g>
	<path class="st0" d="M95.1,192.7c0-10,0-19.4,0-28.7c0-5.1,0.2-10.3,0.1-15.4c-0.1-3.5,1.1-4.8,4.7-4.7c10.7,0.2,21.4-0.1,32.2,0.1
		c4.4,0.1,5.6-1.5,5.6-5.8c-0.2-12.8-0.6-25.7,0.3-38.5c1.2-17.7,7.2-33.6,22.2-44.7c7.9-5.9,16.9-9.1,26.5-10.9
		c14.7-2.7,29.4-3,44.1-1.2c1.3,0.2,2.6,0.6,4.2,1.1c0,4.2,0.1,8.4,0,12.6c-0.2,8.9-0.8,17.8-0.7,26.7c0.1,4.3-1.4,5.3-5.5,5.2
		c-9,0-18.1-0.1-27.1,0.9c-9.5,1.1-14.7,7.9-14.7,17.6c0,11.9,0,23.8,0,36.6c15.3,0,30.5,0,46.5,0c-0.5,5.1-0.8,9.2-1.4,13.2
		c-1.4,10.3-3,20.6-4.3,30.9c-0.5,3.6-1.6,5.1-5.6,5c-11.5-0.3-22.9-0.1-35.5-0.1c0,34.2,0,68,0,102.2c-2.3,0.2-3.7,0.4-5,0.4
		c-13,0-26-0.1-39,0.1c-3.6,0.1-4.6-1.2-4.7-4.7c-0.2-23.4-0.5-46.8-0.9-70.2c-0.1-8-0.5-16-0.4-24c0-3.1-1.2-3.8-4-3.8
		c-11,0.1-22,0-33.1,0C98.2,192.7,96.5,192.7,95.1,192.7z"/>
</g>
</svg>
