<?xml version="1.0" encoding="utf-8"?>
<!-- Generator: Adobe Illustrator 25.2.0, SVG Export Plug-In . SVG Version: 6.00 Build 0)  -->
<svg version="1.1" id="Layer_1" xmlns="http://www.w3.org/2000/svg" xmlns:xlink="http://www.w3.org/1999/xlink" x="0px" y="0px"
	 viewBox="0 0 290.3 337.1" style="enable-background:new 0 0 290.3 337.1;" xml:space="preserve">

<g>
	<path class="st0" d="M217.6,62.4c2.3,0,4.5,0,6.8,0c0.6,1.2,1.4,2.4,1.9,3.7c3.2,9.3,3.9,18.8,1.9,28.5c-0.5,2.2-0.4,5.4,0.8,7.1
		c9.1,11.8,12.3,25.1,11.8,39.9c-1,32.5-16.6,52.7-47.2,60.1c-4.9,1.2-9.9,2-15.3,3c6.3,7.5,8.5,15.8,8.5,24.8
		c0.1,11.2,0,22.4,0,33.6c0,4.5-0.8,9.3,6.2,11.4c-27.7,7.7-53.7,7.7-79.7,0.4c1.4-2,3.6-3.6,3.6-5.3c0.3-8.9,0.2-17.7,0.2-26.9
		c-3.4,0.2-6.3,0.5-9.3,0.7c-18.5,1.2-32.6-3.4-39.6-22.5c-2.4-6.6-7.4-11.6-13.3-15.6c-2.1-1.4-3.2-4.2-4.8-6.3
		c2.6-0.6,5.4-1.9,7.9-1.5c9.3,1.2,15.3,7.1,20.2,14.7c8.3,13.1,21.9,17.5,36.2,11.8c1.3-0.5,2.8-1.3,3.3-2.4
		c2.4-5.6,4.5-11.3,6.7-17c-4.1-0.8-8.7-1.5-13.3-2.6c-23.4-5.5-39.9-18.5-45.3-42.9c-1.4-6.3-2.2-12.9-2.4-19.3
		c-0.5-13.4,2.3-26,10.9-36.7c2.2-2.7,2.7-5.1,1.9-8.5c-2.7-11.1-1.7-21.9,3.5-32.2c2.3,0,4.5,0,6.8,0c10.3,2.9,19.8,7.4,28.8,12.9
		c1.6,1,4.2,0.9,6.1,0.5c20.4-4.6,40.7-4.5,61.1-0.1c2.4,0.5,5.3-0.1,7.7-1.1C199.4,70.7,208.5,66.5,217.6,62.4z"/>
</g>
</svg>
