<?xml version="1.0" encoding="utf-8"?>
<!-- Generator: Adobe Illustrator 25.2.0, SVG Export Plug-In . SVG Version: 6.00 Build 0)  -->
<svg version="1.1" id="Layer_1" xmlns="http://www.w3.org/2000/svg" xmlns:xlink="http://www.w3.org/1999/xlink" x="0px" y="0px"
	 viewBox="0 0 330 337.1" style="enable-background:new 0 0 330 337.1;" xml:space="preserve">

<g>
	<path class="st0" d="M38.7,230.3c0-41.1,0-82.2,0-123.3c0.2-0.9,0.3-1.8,0.5-2.6c1.7-6.6,2.5-13.6,5.3-19.6
		c12.6-27.2,34.2-41.8,64.2-42.2c37.5-0.5,75-0.2,112.5-0.1c14.5,0,28,3.9,39.8,12.4c20.1,14.3,30.1,34,30.2,58.6
		c0.1,36.8,0.1,73.6,0,110.5c0,4.7-0.3,9.6-1.3,14.2c-6.3,28.6-23.7,46.9-51.9,54.7c-3.7,1-7.6,1.4-11.3,2.1c-41.1,0-82.2,0-123.3,0
		c-2.6-0.4-5.2-0.7-7.7-1.3c-28.6-6.4-47-23.7-54.8-52C39.8,237.9,39.4,234.1,38.7,230.3z M61.1,168.6c0,18.2,0,36.5,0,54.7
		c0,5.8,0.6,11.5,2.5,17c7.2,20.1,24.4,32.1,46.3,32.2c36.7,0,73.3,0.1,110-0.1c5.6,0,11.4-0.8,16.7-2.5
		c20.2-6.8,32.2-24.3,32.3-46.1c0-36.7,0.1-73.5-0.1-110.2c0-5.5-0.8-11.2-2.5-16.4c-6.7-20.1-24.2-32.2-45.8-32.3
		c-36.9-0.1-73.8-0.1-110.7,0c-16.6,0-29.9,6.5-39.8,19.9c-6.3,8.6-8.8,18.4-8.8,28.9C61.1,132,61.1,150.3,61.1,168.6z"/>
	<path class="st0" d="M230.1,168.7c0,35.8-29.5,65.2-65.2,65c-35.8-0.1-65.2-29.6-65-65.2c0.2-35.8,29.4-64.9,65-64.9
		C200.7,103.5,230.1,133,230.1,168.7z M165.1,126c-23.4-0.1-42.6,19-42.7,42.5c-0.1,23.4,19,42.6,42.5,42.7
		c23.4,0.1,42.6-19,42.7-42.5C207.7,145.3,188.7,126.1,165.1,126z"/>
	<path class="st0" d="M232.8,84.7c9,0,16.6,7.5,16.4,16.5c-0.1,9-7.5,16.3-16.4,16.3c-9,0-16.6-7.6-16.4-16.5
		C216.5,91.9,223.8,84.7,232.8,84.7z"/>
</g>
</svg>
