<?xml version="1.0" encoding="utf-8"?>
<!-- Generator: Adobe Illustrator 25.2.0, SVG Export Plug-In . SVG Version: 6.00 Build 0)  -->
<svg version="1.1" id="Layer_1" xmlns="http://www.w3.org/2000/svg" xmlns:xlink="http://www.w3.org/1999/xlink" x="0px" y="0px"
	 viewBox="0 0 330 337.1" style="enable-background:new 0 0 330 337.1;" xml:space="preserve">

<g>
	<path class="st0" d="M53.8,238.6c25,2.5,47.3-3.7,67.2-18.8c-2-0.2-4-0.4-6-0.7c-5.8-0.9-11.3-2.9-16.4-5.9
		c-7.5-4.5-13.2-10.7-17.2-18.4c-1-1.9-1.9-3.9-2.5-6c-0.3-0.8-0.2-0.9,0.6-0.7c2.8,0.5,5.6,0.7,8.4,0.7c3.6-0.1,7.2-0.6,10.7-1.4
		c0,0,0.1-0.1,0.2-0.2c-0.6-0.1-1-0.2-1.5-0.4c-8.1-2-15.1-6-21-11.8c-6.7-6.7-11-14.6-12.8-24c-0.5-2.7-0.8-5.5-0.8-8.3
		c0-1,0-1,0.8-0.6c5.7,3,11.7,4.8,18.1,5.2c0.4,0,0.8,0.3,1.2,0c0-0.4-0.3-0.4-0.5-0.6c-8.1-5.8-13.8-13.5-17-23
		c-1.3-4-2-8.1-2.2-12.4c-0.4-8.6,1.6-16.7,5.7-24.3c0.4-0.7,0.6-0.6,1-0.1c3.5,4.3,7.2,8.3,11.2,12c7.8,7.3,16.4,13.6,25.7,18.8
		c7,3.9,14.3,7.2,21.9,9.7c7.1,2.4,14.3,4.1,21.7,5.2c4,0.6,8.1,1,12.2,1.3c0.7,0.1,0.9,0,0.7-0.8c-0.7-3.2-1-6.4-1-9.7
		c0-4.4,0.6-8.8,1.9-13c4.6-14.4,13.9-24.4,28-29.8c7.8-3,15.9-3.6,24.1-2.1c9.5,1.7,17.7,6.1,24.4,13c0.5,0.5,1,0.6,1.7,0.5
		c9.7-2,18.8-5.6,27.3-10.5c0.2-0.1,0.3-0.3,0.6-0.2c-1.7,5.2-4.2,9.9-7.6,14.2c-3.4,4.3-7.4,7.8-11.9,10.7c8.8-1,17.3-3.4,25.6-7
		c-0.3,0.8-0.7,1.3-1.1,1.8c-4.4,6.2-9.4,11.8-15.1,16.7c-1.9,1.6-3.8,3.2-5.8,4.6c-0.5,0.3-0.6,0.7-0.6,1.3
		c0.1,1.6,0.1,3.1,0.1,4.7c0,10.1-1.2,20-3.5,29.8c-2.7,11.5-6.9,22.5-12.5,33c-4.7,8.8-10.2,16.9-16.7,24.4
		c-6.5,7.5-13.7,14.1-21.7,19.9c-10.5,7.6-22,13.3-34.3,17.2c-7.1,2.3-14.3,3.9-21.7,4.9c-5,0.7-10.1,1.1-15.2,1.2
		c-4,0.1-7.9,0.1-11.9-0.1c-9.2-0.5-18.3-2-27.2-4.5c-9.7-2.7-18.9-6.4-27.7-11.3c-2.4-1.3-4.7-2.8-7.1-4.2
		C54.1,239,54.1,238.9,53.8,238.6z"/>
</g>
</svg>
